PathFileType	3	(X/Y/Z)	RCH0000002 BBF 13.c3d
DataRate	CameraRate	NumFrames	NumMarkers	Units	OrigDataRate	OrigDataStartFrame	OrigNumFrames
100.0	100.0	16	23	mm	100.0	313	457
Frame#	Time	T2			T10			MAN			LASI			RASI			LPSI			RPSI			LPAT			LKNE			LANK			LMED			LHEE			LTOE			RPAT			RKNE			RANK			RMED			RHEE			RTOE			RTHI			LTHI			RTIB			LTIB			
		X1	Y1	Z1	X2	Y2	Z2	X3	Y3	Z3	X4	Y4	Z4	X5	Y5	Z5	X6	Y6	Z6	X7	Y7	Z7	X8	Y8	Z8	X9	Y9	Z9	X10	Y10	Z10	X11	Y11	Z11	X12	Y12	Z12	X13	Y13	Z13	X14	Y14	Z14	X15	Y15	Z15	X16	Y16	Z16	X17	Y17	Z17	X18	Y18	Z18	X19	Y19	Z19	X20	Y20	Z20	X21	Y21	Z21	X22	Y22	Z22	X23	Y23	Z23	

313	3.120	696.94838	-91.16830	990.00724	689.71272	-88.77797	803.13828	825.94589	-63.75530	957.81953	786.01574	-27.36053	643.18646	773.84291	-201.05985	672.06544	673.30103	-61.47015	699.57789	670.19286	-130.77861	715.39044	880.53777	-81.24708	412.71932	849.61733	-24.24379	362.45247	790.80412	-5.02921	101.80717	796.06281	-75.69494	109.45788	753.96933	-47.50844	128.48582	839.15709	-39.72677	91.86739	690.68856	-149.46653	380.14404	643.14397	-206.95305	359.42229	552.07304	-197.95640	96.25640	536.40247	-133.55408	115.02024	508.80274	-177.21197	139.40442	586.73797	-153.83597	76.28884	699.57627	-274.38071	457.55080	805.05795	50.75660	476.26144	602.97689	-270.42750	242.97711	826.03857	46.10234	258.83072	
314	3.130	709.53772	-91.03096	986.32635	701.36978	-88.05798	799.46789	838.77732	-63.74087	953.58877	800.30896	-29.62860	639.44473	783.91947	-203.09638	669.43315	685.93653	-60.22296	694.83444	681.18680	-129.48660	711.37602	896.40372	-88.27880	411.62492	869.48470	-29.74541	360.54879	821.60002	-7.88001	97.36121	823.96228	-78.72208	105.09830	782.04440	-49.14395	122.60951	869.05631	-44.17068	89.25609	697.62980	-150.95699	377.53860	648.76960	-207.67705	358.09587	552.47763	-197.62892	96.62892	538.01602	-133.09503	115.63153	510.39930	-176.32951	140.61185	587.32459	-153.83165	75.88264	705.37680	-275.63836	455.70326	825.25507	46.54143	473.60365	605.22930	-270.66196	242.45588	852.50033	41.71519	255.91254	
315	3.140	722.11999	-90.67814	982.30972	713.56420	-87.43788	795.50305	851.68756	-63.65317	949.28443	814.85143	-31.82546	635.54387	794.65548	-205.04669	666.39068	699.07746	-59.19798	690.10670	692.83468	-128.44306	707.22534	911.40752	-95.25698	409.65965	888.24331	-35.23945	358.02912	849.90072	-11.02590	92.84726	849.50735	-81.98579	100.60241	807.88845	-51.10546	116.76673	896.42367	-48.76265	86.41148	705.42978	-152.21846	374.58273	655.26885	-208.14324	356.45052	553.15686	-197.23465	97.06444	539.97042	-132.54201	116.26015	512.43458	-175.32875	141.94481	588.06652	-153.76023	75.40194	711.99103	-276.70115	453.52856	844.85556	42.25863	470.53806	608.07898	-270.69605	241.88189	877.18815	37.13456	252.67021	
316	3.150	734.69703	-90.12672	978.08489	726.32162	-87.00098	791.37306	864.66553	-63.47877	945.04755	829.58570	-33.89876	631.64230	806.11976	-206.88552	662.99274	712.70436	-58.47713	685.56576	705.17173	-127.74190	703.06422	925.61426	-101.93540	406.94275	905.82716	-40.53188	354.98139	875.24384	-14.38177	88.33031	872.31920	-85.40432	96.09684	831.10098	-53.34693	111.10553	920.85836	-53.38525	83.39083	714.15252	-153.26814	371.29919	662.73147	-208.38776	354.49198	554.32334	-196.84796	97.57067	542.41568	-131.98281	116.93537	515.11514	-174.33245	143.41656	589.09724	-153.66154	74.84964	719.54166	-277.57198	451.04027	863.69352	38.07412	467.14403	611.74505	-270.58678	241.24819	899.81775	32.51917	249.13970	
317	3.160	747.27376	-89.40675	973.79018	739.63920	-86.82594	787.21822	877.70014	-63.21496	941.01340	844.43336	-35.79336	627.90476	818.34552	-208.58563	659.30450	726.76212	-58.13396	681.37741	718.19263	-127.46577	699.01656	939.08587	-108.03668	403.63819	922.16939	-45.39948	351.53342	897.27571	-17.80718	83.89002	892.11980	-88.84363	91.72112	851.37646	-55.76632	105.77685	942.06606	-57.87691	80.27129	723.87119	-154.11439	367.71610	671.25704	-208.44225	352.22307	556.20484	-196.54915	98.15071	545.51066	-131.51286	117.68508	518.65965	-173.47256	145.03449	590.56445	-153.58201	74.23444	728.14540	-278.25016	448.25643	881.60101	34.18330	463.53603	616.47583	-270.39210	240.53488	920.15054	28.07455	245.38497	
318	3.170	759.85611	-88.56008	969.57068	753.48419	-86.98087	783.18575	890.77907	-62.87060	937.30780	859.29828	-37.45388	624.49566	831.32807	-210.11746	655.40368	741.16371	-58.22886	677.69651	731.85232	-127.67995	695.20219	951.86587	-113.27297	399.94488	937.19823	-49.60598	347.84745	915.78913	-21.11771	79.61903	908.76027	-92.12723	87.61901	868.53615	-58.21011	100.92512	959.88784	-62.04614	77.14634	734.66133	-154.75084	363.87173	680.94838	-208.32825	349.64876	559.02819	-196.41316	98.80987	549.41531	-131.22180	118.53706	523.28269	-172.87055	146.80335	592.62492	-153.56936	73.57676	737.90925	-278.72815	445.20211	898.41073	30.79534	459.86150	622.52537	-270.16231	239.71655	938.01308	24.03732	241.49843	
319	3.180	772.44893	-87.63854	965.57328	767.79479	-87.51767	779.42448	903.88743	-62.46599	934.04403	874.07190	-38.82753	621.57101	845.02541	-211.44896	651.38194	755.79727	-58.80381	674.66086	746.07040	-128.42619	691.73452	963.96690	-117.37293	396.08148	950.83718	-52.92305	344.10961	930.74795	-24.10434	75.61766	922.23606	-95.05405	83.92830	882.54771	-60.48567	96.67796	974.31657	-65.69265	74.11898	746.59274	-155.15460	359.81963	691.90283	-208.05447	346.78296	563.00313	-196.49989	99.56294	554.28291	-131.18174	119.52059	529.17803	-172.61992	148.72918	595.43995	-153.66818	72.91423	748.92510	-278.99048	441.91340	913.96236	28.11282	456.29278	630.12713	-269.93328	238.77273	953.31497	20.65221	237.59653	
320	3.190	785.05380	-86.70131	961.94094	782.48326	-88.46709	776.07822	917.00661	-62.03180	931.32021	888.64058	-39.86724	619.26943	859.36163	-212.54613	647.34495	770.53585	-59.87716	672.38493	760.73837	-129.71735	688.71786	975.36366	-120.11137	392.26779	963.00963	-55.15376	340.51497	942.29249	-26.55937	71.98517	932.68657	-97.42278	80.76980	893.52820	-62.38250	93.13567	985.49769	-68.63257	71.29249	759.72099	-155.28949	355.63300	704.20233	-207.61757	343.65593	568.30814	-196.84779	100.43993	560.25326	-131.43894	120.66775	536.50342	-172.77392	150.82275	599.17188	-153.91722	72.30509	761.26271	-279.01557	438.44244	928.11273	26.30945	453.01384	639.46874	-269.72292	237.69938	966.05961	18.14445	233.81045	
321	3.200	797.66731	-85.81181	958.80632	797.44118	-89.83493	773.27839	930.11355	-61.60702	929.21700	902.89413	-40.53497	617.70301	874.23258	-213.37457	643.41089	785.24855	-61.43918	670.95384	775.72902	-131.53335	686.24416	985.99340	-121.33723	388.70495	973.64713	-56.15550	337.25022	950.72290	-28.30518	68.80916	940.37900	-99.05965	78.23679	901.72909	-63.70080	90.36190	993.71326	-70.72337	68.76050	774.07999	-155.11376	351.40718	717.90377	-207.00622	340.32083	575.08008	-197.47152	101.48872	567.44734	-132.00993	122.01343	545.36882	-173.34020	153.10141	603.98163	-154.34843	71.82832	774.96154	-278.78008	434.86260	940.74883	25.50880	450.20334	650.67137	-269.53151	236.51926	976.34329	16.69147	230.27313	
322	3.210	810.27989	-85.03388	956.28520	812.54625	-91.59984	771.13637	943.18056	-61.23617	927.79550	916.73462	-40.80503	616.94912	889.51327	-213.90204	639.70684	799.81168	-63.44917	670.41810	790.90647	-133.81955	684.38922	995.76468	-120.99508	385.55768	982.69986	-55.85891	334.47606	956.46219	-29.22142	66.15560	945.67912	-99.84543	76.38654	907.50555	-64.28375	88.37750	999.35146	-71.88432	66.59807	789.67667	-154.59107	347.25951	733.03071	-206.20753	336.85784	583.40871	-198.36328	102.77307	575.96396	-132.88226	123.59335	555.82967	-174.28267	155.58829	610.02672	-154.98717	71.57927	790.02260	-278.26514	431.27214	951.80161	25.76762	448.01634	663.77665	-269.34595	235.28890	984.34110	16.39870	227.10482	
323	3.220	822.87538	-84.42758	954.47017	827.66997	-93.71332	769.73632	956.17590	-60.96592	927.09533	930.08424	-40.66689	617.04425	905.06623	-214.10182	636.36319	814.11847	-65.83524	670.78996	806.13598	-136.48802	683.20863	1004.57372	-119.13645	382.94148	990.14763	-54.27988	332.31247	960.00527	-29.26553	64.06196	949.01384	-99.73661	75.23563	911.27536	-64.04753	87.15949	1002.86616	-72.10884	64.85548	806.48832	-153.70227	343.32577	749.56792	-205.21456	333.37459	593.33660	-199.49705	104.36572	585.87844	-134.01894	125.43992	567.88622	-175.52950	158.30847	617.45911	-155.85282	71.66100	806.40197	-277.46325	427.79494	961.25762	27.06659	446.56734	678.74267	-269.14686	234.10011	990.28222	17.28357	224.40033	
324	3.230	835.43147	-84.04490	953.42510	842.68538	-96.10205	769.12929	969.06497	-60.84154	927.13302	942.89125	-40.12710	617.98087	920.75014	-213.95624	633.50611	828.08615	-68.49737	672.04197	821.29227	-139.42240	682.73385	1012.32558	-115.91828	380.91701	996.00995	-51.52248	330.82912	961.86352	-28.48279	62.53527	950.83147	-98.77685	74.76014	913.47524	-63.00256	86.64581	1004.73322	-71.46699	63.55572	824.46308	-152.45539	339.75320	767.45940	-204.03314	330.00217	604.86393	-200.83419	106.33713	597.24314	-135.36526	127.57609	581.48904	-176.98520	161.28244	626.42181	-156.95891	72.17199	824.00731	-276.38434	424.57693	969.16581	29.31044	445.91753	695.44961	-268.91689	233.07506	994.42039	19.27013	222.22079	
325	3.240	847.92089	-83.92570	953.18102	857.47433	-98.67270	769.32929	981.81223	-60.90329	927.90059	955.13286	-39.20979	619.70800	936.42807	-213.45990	631.24886	841.65945	-71.31411	674.10805	836.26580	-142.48619	682.96908	1018.95662	-111.58866	379.49224	1000.35380	-47.77195	330.04259	962.51524	-27.00376	61.55523	951.56570	-97.09586	74.90098	914.52200	-61.26056	86.74572	1005.41021	-70.09773	62.69552	843.52337	-150.89164	336.69078	786.61047	-202.68677	326.88658	617.95733	-202.32911	108.74175	610.08917	-136.85665	130.00834	596.55004	-178.54429	164.51785	637.04402	-158.31230	73.19217	842.69881	-275.05974	421.77768	975.63771	32.33738	446.06836	713.71432	-268.64820	232.35486	997.00740	22.19521	220.59127	
326	3.250	860.31323	-84.09442	953.73390	871.93341	-101.31894	770.31197	994.38346	-61.18317	929.36484	966.81499	-37.95544	622.13553	951.97461	-212.62173	629.68253	854.81050	-74.15249	676.88723	850.96656	-145.53398	683.88917	1024.45398	-106.46129	378.63133	1003.29841	-43.27840	329.92052	962.36958	-25.02913	61.08117	951.60775	-94.89557	75.57330	914.78433	-59.02481	87.35354	1005.30511	-68.19240	62.24942	863.57169	-149.08583	334.27785	806.89376	-201.21838	324.17677	632.56077	-203.93397	111.60449	624.42880	-138.42603	132.72044	612.95715	-180.10441	168.00144	649.43448	-159.91135	74.76987	862.29529	-273.54330	419.55773	980.84063	35.93651	446.96275	733.31180	-268.34710	232.08292	998.27575	25.82513	219.50391	
327	3.260	872.57739	-84.55799	955.04452	885.97821	-103.92999	772.01613	1006.74818	-61.70234	931.46734	977.96874	-36.41813	625.14180	967.28169	-211.46562	628.86758	867.53537	-76.88012	680.24975	865.32542	-148.42426	685.43927	1028.86876	-100.88256	378.26755	1005.01614	-38.33297	330.39129	961.74819	-22.80432	61.06049	951.28867	-92.42523	76.67810	914.56758	-56.56448	88.36303	1004.75687	-65.97207	62.17539	884.49815	-147.14126	332.63274	828.15873	-199.68863	322.01072	648.60682	-205.60209	114.91038	640.25776	-140.01019	135.66960	630.59029	-181.57712	171.69322	663.67410	-161.74381	76.91223	882.58520	-271.90896	418.06313	984.98539	39.87033	448.49372	754.00082	-268.03474	232.38563	998.43368	29.88069	218.92472	
328	3.270	884.68412	-85.30528	957.04075	899.54590	-106.39984	774.34786	1018.88195	-62.46924	934.12558	988.64437	-34.66128	628.58365	982.26241	-210.02920	628.82711	879.84825	-79.37803	684.04477	879.29362	-151.03234	687.53630	1032.32041	-95.19586	378.31721	1005.72874	-33.23946	331.35661	960.88395	-20.58763	61.43637	950.87188	-89.94948	78.11378	914.11088	-54.17690	89.67934	1004.02813	-63.66190	62.42085	906.18852	-145.17962	331.84325	850.24370	-198.17105	320.50206	666.02634	-207.29024	118.60008	657.55697	-141.55446	138.78659	649.33585	-182.89538	175.52474	679.80878	-163.78511	79.58134	903.34186	-270.24501	417.40978	988.31035	43.89909	450.51874	775.54961	-267.74373	233.35365	997.67130	34.06704	218.80164	
